<svg version="1.1" xmlns="http://www.w3.org/2000/svg" width="24" height="24" viewBox="0 0 24 24" style="width: 150px; height: 150px; opacity: 1; background-color: #fff" xml:space="preserve">
<style type="text/css">
	.st0{fill:rgb(48, 55, 64);}
</style>
<path class="st0" d="M 12 2 c 2.8 0 5 2.2 5 5 c 0 2.8 -2.2 5 -5 5 s -5 -2.2 -5 -5 c 0 -2.8 2.2 -5 5 -5 z m 0 -2 c -3.9 0 -7 3.1 -7 7 c 0 3.9 3.1 7 7 7 s 7 -3.1 7 -7 c 0 -3.9 -3.1 -7 -7 -7 z m 6.4 13.4 c -0.5 0.5 -1.1 0.9 -1.7 1.3 c 2.9 1.9 4.4 5.1 5 7.3 h -19.4 c 0.6 -2.3 2.1 -5.5 5 -7.4 c -0.6 -0.4 -1.2 -0.8 -1.7 -1.3 c -4.3 3.1 -5.6 8.5 -5.6 10.7 h 24 c 0 -2.1 -1.4 -7.6 -5.6 -10.6 z"/>
</svg>
